<?xml version="1.0" standalone="no"?>
<!DOCTYPE svg PUBLIC "-//W3C//DTD SVG 20010904//EN"
 "http://www.w3.org/TR/2001/REC-SVG-20010904/DTD/svg10.dtd">
<svg version="1.0" xmlns="http://www.w3.org/2000/svg"
 width="500.000000pt" height="500.000000pt" viewBox="0 0 500.000000 500.000000"
 preserveAspectRatio="xMidYMid meet">

<g transform="translate(0.000000,500.000000) scale(0.100000,-0.100000)"
fill="#000000" stroke="none">
<path d="M2259 4350 c-226 -26 -488 -103 -696 -204 -229 -112 -407 -239 -588
-421 -316 -317 -517 -710 -602 -1175 -15 -85 -17 -195 -20 -1003 l-4 -907
2151 0 2151 0 -4 907 c-3 881 -4 911 -25 1023 -75 402 -238 746 -496 1047
-321 375 -750 618 -1261 714 -125 23 -472 34 -606 19z m606 -39 c789 -147
1410 -685 1660 -1437 57 -172 105 -437 105 -581 l0 -53 -2132 0 -2131 0 7 108
c32 525 268 1033 653 1403 299 287 692 486 1108 559 154 27 174 28 410 25 159
-3 237 -8 320 -24z m1765 -2871 l0 -780 -2130 0 -2130 0 0 780 0 780 2130 0
2130 0 0 -780z"/>
<path d="M2936 4033 c-6 -14 -5 -15 5 -6 7 7 10 15 7 18 -3 3 -9 -2 -12 -12z"/>
<path d="M2415 4030 c3 -5 8 -10 11 -10 2 0 4 5 4 10 0 6 -5 10 -11 10 -5 0
-7 -4 -4 -10z"/>
<path d="M2540 4030 c0 -5 5 -10 10 -10 6 0 10 5 10 10 0 6 -4 10 -10 10 -5 0
-10 -4 -10 -10z"/>
<path d="M2668 3993 c5 -76 10 -83 11 -15 0 34 -2 62 -7 62 -4 0 -6 -21 -4
-47z"/>
<path d="M2755 3975 c0 -37 4 -65 10 -65 6 0 9 26 7 65 -5 84 -17 84 -17 0z"/>
<path d="M2800 4030 c0 -5 5 -10 10 -10 6 0 10 5 10 10 0 6 -4 10 -10 10 -5 0
-10 -4 -10 -10z"/>
<path d="M2046 4004 c-9 -23 -7 -72 2 -78 5 -3 8 17 8 45 0 53 -1 57 -10 33z"/>
<path d="M2115 4010 c3 -5 8 -10 11 -10 2 0 4 5 4 10 0 6 -5 10 -11 10 -5 0
-7 -4 -4 -10z"/>
<path d="M2852 3968 c2 -28 8 -53 13 -55 6 -2 9 18 7 52 -2 30 -8 55 -13 55
-6 0 -9 -23 -7 -52z"/>
<path d="M2157 3993 c-9 -9 -9 -71 1 -76 4 -3 7 15 7 39 0 24 0 44 -1 44 0 0
-4 -3 -7 -7z"/>
<path d="M2195 3955 c0 -39 2 -43 13 -28 6 9 12 22 12 28 0 6 -6 19 -12 28
-11 15 -13 11 -13 -28z"/>
<path d="M2238 3955 c2 -25 8 -45 13 -45 5 0 9 20 9 45 0 29 -4 45 -13 45 -8
0 -11 -14 -9 -45z"/>
<path d="M2288 3955 c2 -25 8 -45 13 -45 10 0 12 50 3 74 -12 30 -19 16 -16
-29z"/>
<path d="M2337 3963 c22 -47 22 -48 29 -41 3 4 -1 19 -10 36 -8 16 -12 32 -9
36 4 3 -1 6 -10 6 -15 0 -15 -3 0 -37z"/>
<path d="M2415 3955 c0 -25 5 -45 10 -45 6 0 9 19 7 45 -2 25 -7 45 -11 45 -3
0 -6 -20 -6 -45z"/>
<path d="M2468 3955 c9 -26 18 -41 20 -36 5 15 -18 81 -28 81 -5 0 -1 -20 8
-45z"/>
<path d="M2540 3955 c0 -25 5 -45 10 -45 6 0 10 20 10 45 0 25 -4 45 -10 45
-5 0 -10 -20 -10 -45z"/>
<path d="M2620 3961 c0 -22 5 -43 10 -46 6 -4 10 10 10 34 0 22 -4 43 -10 46
-6 4 -10 -10 -10 -34z"/>
<path d="M2709 3987 c9 -11 11 -28 7 -49 -5 -23 -3 -29 5 -21 15 15 7 75 -11
81 -13 5 -13 3 -1 -11z"/>
<path d="M2800 3955 c0 -25 5 -45 10 -45 6 0 10 20 10 45 0 25 -4 45 -10 45
-5 0 -10 -20 -10 -45z"/>
<path d="M2912 3988 c-27 -27 -2 -88 30 -75 8 3 6 6 -6 6 -15 1 -17 8 -14 41
2 22 3 40 3 40 -1 0 -6 -5 -13 -12z"/>
<path d="M2947 3979 c4 -13 8 -18 11 -10 2 7 -1 18 -6 23 -8 8 -9 4 -5 -13z"/>
<path d="M2585 3980 c3 -5 8 -10 11 -10 2 0 4 5 4 10 0 6 -5 10 -11 10 -5 0
-7 -4 -4 -10z"/>
<path d="M2585 3940 c-8 -13 3 -30 18 -30 8 0 7 3 -2 9 -7 5 -10 14 -7 20 4 6
5 11 2 11 -3 0 -8 -4 -11 -10z"/>
<path d="M2115 3930 c-3 -5 -1 -10 4 -10 6 0 11 5 11 10 0 6 -2 10 -4 10 -3 0
-8 -4 -11 -10z"/>
<path d="M2660 3850 c0 -5 5 -10 10 -10 6 0 10 5 10 10 0 6 -4 10 -10 10 -5 0
-10 -4 -10 -10z"/>
<path d="M2165 3790 c0 -33 4 -60 10 -60 6 0 10 27 10 60 0 33 -4 60 -10 60
-6 0 -10 -27 -10 -60z"/>
<path d="M2225 3840 c3 -5 8 -10 11 -10 2 0 4 5 4 10 0 6 -5 10 -11 10 -5 0
-7 -4 -4 -10z"/>
<path d="M2255 3775 c0 -25 5 -45 10 -45 13 0 13 82 0 87 -6 2 -10 -17 -10
-42z"/>
<path d="M2290 3810 c0 -5 5 -10 10 -10 6 0 10 5 10 10 0 6 -4 10 -10 10 -5 0
-10 -4 -10 -10z"/>
<path d="M2366 3777 c0 -22 5 -42 10 -44 11 -4 6 75 -5 81 -3 2 -6 -14 -5 -37z"/>
<path d="M2408 3775 c2 -25 8 -45 13 -45 5 0 9 20 9 45 0 29 -4 45 -13 45 -8
0 -11 -14 -9 -45z"/>
<path d="M2458 3775 c2 -25 8 -45 13 -45 10 0 12 50 3 74 -12 30 -19 16 -16
-29z"/>
<path d="M2512 3808 c-18 -18 -14 -53 8 -73 11 -10 17 -22 13 -28 -4 -6 -1 -7
6 -3 7 5 10 11 7 14 -3 3 -1 11 5 18 8 9 5 11 -10 7 -15 -4 -22 1 -27 21 -4
16 -1 32 6 41 15 18 9 20 -8 3z"/>
<path d="M2619 3774 c1 -24 6 -44 10 -44 8 0 1 79 -8 84 -3 2 -4 -16 -2 -40z"/>
<path d="M2660 3775 c0 -25 5 -45 10 -45 6 0 10 20 10 45 0 25 -4 45 -10 45
-5 0 -10 -20 -10 -45z"/>
<path d="M2711 3803 c-1 -12 4 -25 10 -28 6 -4 14 -17 19 -29 8 -20 8 -20 16
-2 5 13 1 23 -13 35 -11 9 -23 23 -26 31 -4 10 -6 8 -6 -7z"/>
<path d="M2784 3806 c-3 -8 -4 -27 -2 -43 2 -22 9 -29 28 -30 l25 -3 -24 10
c-20 9 -23 15 -18 45 6 35 1 47 -9 21z"/>
<path d="M2820 3806 c0 -8 5 -18 10 -21 6 -3 10 1 10 9 0 8 -4 18 -10 21 -5 3
-10 -1 -10 -9z"/>
<path d="M2326 3761 c-5 -7 -3 -18 3 -24 14 -14 20 -6 11 17 -5 15 -9 16 -14
7z"/>
<path d="M2576 3762 c-10 -16 1 -32 22 -32 11 0 13 3 6 8 -6 4 -13 14 -16 22
-3 10 -6 11 -12 2z"/>
<path d="M2553 3543 c-18 -2 -33 -8 -33 -12 0 -5 21 -6 46 -3 38 4 47 1 60
-17 8 -11 23 -21 32 -21 16 1 16 1 0 11 -10 5 -15 16 -12 24 4 9 0 15 -7 15
-8 0 -23 2 -34 4 -11 2 -35 1 -52 -1z"/>
<path d="M2485 3516 c-11 -6 -22 -13 -25 -16 -3 -3 -21 -6 -40 -8 -19 -1 -40
-9 -47 -18 -6 -8 -33 -19 -60 -24 -43 -7 -45 -8 -13 -9 20 0 54 8 75 19 25 13
63 21 102 23 35 1 63 5 63 9 0 3 8 9 18 12 9 3 -1 3 -23 1 -24 -3 -35 -1 -26
4 21 13 -1 20 -24 7z"/>
<path d="M2687 3472 c2 -10 12 -23 22 -29 21 -13 164 -53 192 -53 11 0 34 -7
51 -16 22 -11 33 -13 41 -5 8 8 5 11 -10 11 -11 0 -26 7 -33 15 -7 9 -29 15
-54 15 -23 0 -47 5 -53 11 -6 6 -38 14 -70 18 -47 5 -60 10 -68 29 -12 26 -25
30 -18 4z"/>
<path d="M2165 3451 c-21 -6 -78 -38 -130 -71 -16 -10 -43 -19 -60 -20 -97 -3
-315 -326 -315 -467 0 -87 35 -233 59 -248 6 -3 11 -14 11 -24 0 -10 7 -24 15
-31 8 -7 24 -33 35 -58 24 -53 47 -75 115 -109 94 -47 445 -52 587 -9 25 7 69
32 97 55 47 36 68 46 94 42 4 0 8 4 8 9 1 6 3 15 4 20 1 6 3 15 4 21 0 5 5 8
10 5 5 -3 12 5 15 18 6 25 31 40 47 30 5 -3 0 -18 -11 -34 -25 -35 -31 -62
-20 -80 6 -9 10 -7 15 9 3 11 3 26 -1 32 -4 8 -3 9 5 5 13 -8 44 25 61 65 8
19 17 25 31 22 10 -3 19 -8 19 -12 0 -22 -24 -80 -46 -113 -24 -35 -31 -38
-66 -36 -43 2 -59 15 -37 29 8 5 10 9 4 9 -5 0 -16 -4 -23 -9 -20 -12 12 -41
46 -41 15 0 45 -2 67 -5 26 -3 32 -2 16 3 l-23 7 26 15 c16 8 25 19 21 27 -2
8 0 11 5 8 6 -3 10 2 10 12 1 17 2 17 15 -1 17 -23 20 -14 4 15 -10 19 -9 20
11 9 20 -11 21 -10 10 10 -7 13 -8 20 -2 16 5 -3 13 1 16 10 4 10 2 13 -7 8
-9 -6 -8 -3 1 8 9 12 26 16 57 14 24 -1 42 1 39 6 -3 4 2 5 10 2 10 -4 16 -1
16 10 0 16 38 42 47 32 5 -5 -4 -48 -22 -112 -3 -11 6 6 21 36 27 59 73 124
81 117 5 -6 -30 -77 -65 -129 -14 -21 -22 -41 -18 -45 3 -3 6 -1 6 6 0 6 20
33 43 59 24 26 66 81 94 122 65 98 71 110 41 80 -13 -14 -23 -27 -22 -30 4 -9
-24 -41 -29 -33 -8 13 24 83 36 76 6 -3 7 -1 3 5 -3 6 0 14 8 19 8 4 16 13 18
18 2 6 8 10 15 10 6 0 15 4 20 9 4 5 3 6 -4 2 -9 -5 -13 0 -13 15 0 17 3 19
14 10 12 -10 18 -7 31 19 9 17 13 35 10 39 -3 5 0 11 5 13 16 5 31 125 19 155
-11 31 -89 109 -89 90 0 -7 11 -20 25 -27 28 -15 55 -66 55 -105 0 -31 -22
-76 -62 -127 -16 -20 -45 -69 -65 -109 -45 -90 -93 -139 -163 -163 -96 -34
-213 -38 -225 -8 -3 8 -12 11 -21 8 -8 -3 -12 -2 -9 4 3 5 -7 7 -25 5 -16 -2
-30 1 -30 7 0 5 7 8 15 5 8 -4 17 -1 21 5 4 7 3 8 -4 4 -7 -4 -12 -2 -12 3 0
14 27 14 32 1 2 -5 13 10 25 33 22 40 22 41 2 17 -12 -14 -27 -24 -34 -22 -7
1 -18 -5 -25 -13 -7 -8 -27 -16 -44 -16 -23 -1 -25 -3 -8 -6 29 -6 29 -23 -1
-23 -13 0 -64 -16 -113 -35 -49 -19 -124 -42 -168 -51 -76 -16 -81 -16 -169 6
-50 13 -112 24 -139 25 -52 3 -128 44 -128 69 0 8 -10 23 -23 33 -17 13 -24
30 -25 65 -2 37 -10 53 -36 81 -30 32 -34 43 -41 119 -10 107 -10 111 -2 188
3 36 3 56 -2 46 -7 -19 -8 -19 -14 -1 -12 29 17 61 80 90 32 14 76 36 98 47
22 12 57 30 79 41 21 11 60 22 87 25 27 2 46 8 43 13 -6 10 -59 10 -89 0z
m-325 -275 c0 -11 -19 -15 -25 -6 -3 5 1 10 9 10 9 0 16 -2 16 -4z m-33 -22
c-3 -3 -12 -4 -19 -1 -8 3 -5 6 6 6 11 1 17 -2 13 -5z m-11 -51 c-3 -4 -6 -1
-6 6 0 8 -8 10 -22 6 -22 -6 -23 -6 -3 10 17 14 20 14 28 -1 5 -8 6 -18 3 -21z
m54 33 c0 -2 -7 -6 -15 -10 -8 -3 -15 -1 -15 4 0 6 7 10 15 10 8 0 15 -2 15
-4z m-65 -46 c4 -6 1 -9 -6 -8 -6 2 -14 -3 -16 -10 -3 -8 1 -10 13 -5 12 4 15
3 10 -5 -4 -7 -13 -12 -21 -12 -7 0 -28 -12 -46 -27 -36 -30 -32 -19 14 40 30
38 41 44 52 27z m61 -7 c-2 -9 -9 -19 -16 -21 -8 -3 -10 0 -5 8 6 10 3 12 -10
6 -15 -5 -16 -4 -5 9 17 20 39 19 36 -2z m-36 -43 c0 -5 -5 -10 -11 -10 -5 0
-7 5 -4 10 3 6 8 10 11 10 2 0 4 -4 4 -10z m49 -27 c0 -21 -5 -47 -10 -58 -8
-16 -8 -14 -5 10 3 17 3 24 0 17 -3 -6 -9 -10 -12 -8 -4 2 -7 -9 -7 -25 0 -23
4 -29 22 -29 13 0 27 -9 34 -22 7 -13 18 -27 25 -31 24 -14 16 -44 -13 -55
-42 -15 -110 -15 -116 0 -4 12 -50 16 -86 6 -17 -4 -26 49 -11 67 8 9 8 14 -1
17 -19 6 -1 63 31 93 17 16 30 24 30 17 0 -7 7 -9 18 -5 15 6 15 5 3 -10 -7
-9 -11 -24 -7 -32 3 -9 -1 -18 -9 -21 -8 -4 -12 -10 -9 -15 11 -19 24 -8 35
31 7 22 16 40 21 40 5 0 6 5 3 10 -3 6 3 10 13 10 11 0 22 7 26 15 11 28 26
15 25 -22z m67 -217 c-1 -8 -7 -20 -14 -28 -14 -17 -6 -29 14 -21 10 4 12 0 8
-11 -4 -10 -18 -16 -36 -16 -26 0 -29 2 -18 15 7 8 10 15 7 15 -11 0 -115 -58
-111 -62 2 -3 -5 -13 -16 -23 -18 -16 -22 -17 -35 -4 -8 8 -16 23 -18 34 -2
11 -7 28 -10 38 -14 36 -15 44 -6 58 7 11 9 11 9 0 0 -8 6 -11 18 -6 35 14 53
14 59 -1 4 -11 8 -12 13 -4 3 6 14 8 24 4 14 -5 15 -9 4 -16 -9 -7 -5 -7 12
-3 14 4 37 8 52 9 14 0 26 3 26 6 -1 18 3 30 11 30 5 0 8 -6 7 -14z m1284 -71
c0 -1 -6 -7 -13 -13 -10 -8 -13 -6 -13 7 0 11 6 17 13 14 7 -3 13 -6 13 -8z
m-1261 -34 c13 -12 18 -22 11 -26 -5 -3 -10 -2 -10 2 0 16 -68 2 -89 -18 -11
-10 -25 -19 -31 -19 -5 0 -10 -5 -10 -10 0 -6 -10 -15 -22 -20 -14 -5 -17 -9
-8 -10 13 0 13 -1 0 -10 -10 -6 -20 -4 -32 7 -17 15 -17 17 2 43 11 15 17 29
14 32 -2 3 3 11 13 19 15 12 16 12 8 -1 -5 -8 4 -5 20 7 39 29 103 30 134 4z
m766 -50 c-24 -47 -166 -186 -202 -199 -21 -7 -35 -7 -38 -1 -8 12 74 99 94
99 14 0 14 1 1 10 -11 7 -11 10 -2 10 7 0 10 5 7 10 -3 6 -1 10 4 10 6 0 11 7
11 15 0 9 7 18 15 21 8 4 12 11 8 18 -3 6 -3 8 1 4 4 -3 19 0 34 8 20 10 28
11 34 1 5 -9 10 -9 20 2 10 10 10 12 1 7 -7 -4 -13 -2 -13 4 0 7 7 10 15 6 8
-3 15 0 15 6 0 6 3 9 6 6 3 -4 -2 -20 -11 -37z m78 13 c3 -4 -1 -13 -9 -21 -8
-9 -18 -12 -22 -8 -4 4 -1 10 6 12 6 3 10 9 6 14 -6 10 9 12 19 3z m190 -21
c-7 -2 -19 -2 -25 0 -7 3 -2 5 12 5 14 0 19 -2 13 -5z m-1033 -13 c0 -5 -5
-10 -11 -10 -5 0 -7 5 -4 10 3 6 8 10 11 10 2 0 4 -4 4 -10z m23 -16 c23 4 28
3 17 -4 -8 -5 -20 -10 -27 -10 -16 0 -78 -63 -75 -76 1 -7 -4 -14 -13 -18 -8
-3 -15 -2 -15 2 0 4 -12 8 -26 7 -18 0 -29 7 -35 23 -7 19 -5 22 17 22 14 0
22 -4 19 -10 -11 -18 3 -10 45 25 40 34 45 50 6 20 -10 -8 -23 -12 -28 -9 -5
3 6 14 24 23 21 11 37 14 46 8 6 -5 27 -7 45 -3z m-126 -1 c-9 -2 -15 -8 -12
-13 3 -4 -2 -10 -10 -14 -8 -3 -15 -2 -15 2 0 14 24 32 40 31 11 -1 11 -2 -3
-6z m669 -40 c-13 -21 -26 -45 -28 -53 -3 -16 -8 -24 -40 -63 -16 -19 -36 -30
-63 -34 l-40 -6 28 23 c23 18 26 25 15 32 -10 8 -9 9 4 5 18 -6 52 25 41 37
-5 4 -3 7 2 6 21 -5 29 1 15 10 -13 8 -13 10 2 10 10 0 25 12 35 28 18 28 45
53 51 47 2 -2 -8 -20 -22 -42z m-261 27 c-3 -5 -13 -10 -21 -10 -8 0 -12 -4
-9 -10 3 -5 4 -10 1 -10 -17 0 -13 22 6 29 30 13 30 13 23 1z m-183 -7 c-6 -2
-9 -9 -6 -14 3 -6 12 -5 21 3 15 12 15 11 2 -10 -12 -20 -15 -20 -25 -7 -10
14 -12 14 -18 -1 -4 -11 0 -18 14 -21 11 -3 20 -10 20 -15 0 -5 -5 -6 -12 -2
-8 5 -9 2 -5 -10 4 -10 7 -24 7 -32 0 -9 5 -12 13 -8 6 4 9 4 5 -1 -10 -10 10
-35 28 -35 7 0 11 8 9 20 -4 21 11 28 17 9 2 -7 9 -5 17 5 12 14 10 16 -10 17
-18 1 -15 4 11 9 33 7 33 7 6 9 -24 1 -27 3 -16 16 7 8 24 14 39 14 25 -1 25
-2 -4 -9 l-30 -8 27 -1 c17 -1 37 9 52 24 14 14 20 25 13 25 -7 0 -4 5 6 11
10 6 21 8 24 5 4 -3 1 -6 -5 -6 -6 0 -9 -6 -6 -13 2 -7 -5 -23 -16 -35 -11
-12 -18 -22 -15 -22 3 0 -5 -15 -19 -33 -15 -19 -26 -36 -26 -38 0 -2 21 -4
47 -4 42 0 49 3 61 28 7 15 18 27 24 27 7 0 6 5 -1 14 -10 12 -8 14 13 12 37
-4 39 -10 12 -37 -56 -55 -63 -59 -102 -58 -21 0 -57 0 -78 0 -21 0 -47 4 -57
9 -12 7 -22 6 -33 -5 -8 -9 -17 -11 -21 -6 -3 6 -29 8 -58 7 -35 -2 -56 1 -65
10 -7 8 -8 14 -2 14 5 0 10 5 10 10 0 6 -9 10 -19 10 -39 0 -31 21 13 40 44
18 65 36 29 23 -10 -3 -14 -2 -10 3 10 10 109 61 122 62 6 0 4 -2 -3 -5z m405
-11 c-10 -10 -14 -22 -10 -25 3 -4 1 -7 -5 -7 -19 0 -23 18 -6 34 22 22 41 20
21 -2z m-79 -12 c-10 -6 -14 -18 -11 -30 4 -14 0 -20 -11 -20 -10 0 -14 5 -11
10 3 6 2 10 -4 10 -5 0 -11 -5 -13 -12 -2 -6 -9 -8 -16 -4 -16 9 7 36 25 29 7
-3 16 2 19 11 3 9 14 16 23 16 15 -1 15 -1 -1 -10z m-180 -9 c7 -1 11 -5 8
-10 -7 -10 -43 -3 -51 9 -3 5 3 7 12 5 10 -2 24 -4 31 -4z m67 -41 c3 -5 2
-10 -4 -10 -5 0 -13 5 -16 10 -3 6 -2 10 4 10 5 0 13 -4 16 -10z m-172 -15
c-3 -9 -8 -14 -10 -11 -3 3 -2 9 2 15 9 16 15 13 8 -4z m172 -26 c-4 -5 -14
-9 -23 -10 -14 0 -13 -2 3 -9 16 -6 12 -8 -18 -8 -35 1 -36 2 -19 18 29 28 72
35 57 9z m175 -39 c0 -5 -5 -10 -11 -10 -5 0 -7 5 -4 10 3 6 8 10 11 10 2 0 4
-4 4 -10z"/>
<path d="M1725 2990 c-3 -5 -4 -10 -1 -10 3 0 -1 -12 -9 -27 -8 -15 -12 -29
-10 -32 9 -8 34 33 35 57 0 24 -5 28 -15 12z"/>
<path d="M1785 2895 c-16 -8 -23 -14 -15 -14 30 2 39 -1 43 -18 3 -13 5 -12 6
5 1 16 5 21 14 16 8 -5 8 -2 -2 9 -7 9 -14 17 -15 17 0 -1 -14 -7 -31 -15z"/>
<path d="M1715 2874 c-22 -10 -24 -13 -7 -10 13 2 22 -1 22 -8 0 -10 8 -11 34
-2 19 6 32 14 30 18 -3 5 -10 6 -15 2 -5 -3 -15 -1 -22 4 -8 7 -22 6 -42 -4z"/>
<path d="M1750 2755 c0 -8 2 -15 4 -15 2 0 6 7 10 15 3 8 1 15 -4 15 -6 0 -10
-7 -10 -15z"/>
<path d="M1790 2740 c-9 -6 -10 -10 -3 -10 6 0 15 5 18 10 8 12 4 12 -15 0z"/>
<path d="M1717 2717 c-5 -12 -1 -17 13 -17 11 0 20 5 20 11 0 5 -4 8 -9 5 -5
-4 -11 -1 -13 6 -3 8 -7 6 -11 -5z"/>
<path d="M2645 2630 c3 -5 8 -10 11 -10 2 0 4 5 4 10 0 6 -5 10 -11 10 -5 0
-7 -4 -4 -10z"/>
<path d="M2620 2600 c0 -5 5 -10 11 -10 5 0 7 5 4 10 -3 6 -8 10 -11 10 -2 0
-4 -4 -4 -10z"/>
<path d="M2599 2593 c0 -5 -2 -16 -4 -25 -2 -10 0 -18 5 -18 4 0 8 11 8 25 0
22 -7 36 -9 18z"/>
<path d="M2016 2536 c3 -9 11 -16 16 -16 13 0 5 23 -10 28 -7 2 -10 -2 -6 -12z"/>
<path d="M2065 2440 c3 -5 11 -10 16 -10 6 0 7 5 4 10 -3 6 -11 10 -16 10 -6
0 -7 -4 -4 -10z"/>
<path d="M2407 3444 c-3 -3 -22 -11 -42 -18 -33 -12 -35 -14 -19 -27 10 -8 15
-9 11 -3 -6 10 16 23 47 28 5 0 11 7 14 14 4 13 -1 16 -11 6z"/>
<path d="M2515 3427 c-6 -7 -15 -19 -19 -27 -7 -11 -6 -12 3 -4 18 16 63 -6
55 -26 -4 -12 -3 -12 7 -3 7 7 17 9 23 4 6 -4 33 -14 59 -21 34 -9 52 -20 60
-37 11 -25 33 -33 23 -8 -3 9 0 15 9 15 8 0 15 5 15 10 0 6 -9 10 -19 10 -11
0 -22 4 -25 9 -3 4 -20 11 -38 14 -46 7 -137 48 -140 63 -2 9 -6 9 -13 1z"/>
<path d="M2470 3419 c0 -5 5 -7 10 -4 6 3 10 8 10 11 0 2 -4 4 -10 4 -5 0 -10
-5 -10 -11z"/>
<path d="M2250 3390 c8 -5 42 -19 76 -30 l61 -21 18 -62 c35 -125 36 -129 12
-122 -12 4 -44 20 -70 36 -27 16 -54 26 -60 22 -7 -4 -8 0 -4 11 4 11 3 15 -4
11 -5 -4 -21 -4 -34 -1 -20 5 -24 15 -33 78 l-11 73 3 -63 2 -64 -28 6 c-38 8
-35 -1 7 -18 19 -8 35 -20 35 -26 0 -6 4 -9 10 -5 5 3 17 1 27 -4 10 -6 56
-28 103 -51 47 -22 98 -48 114 -56 15 -9 33 -17 40 -18 6 -1 22 -9 35 -18 13
-10 46 -25 73 -35 43 -15 51 -23 73 -70 14 -29 28 -67 32 -84 l6 -32 -51 28
c-28 15 -49 32 -46 36 3 5 -3 6 -12 2 -10 -3 -15 -2 -12 3 4 5 -5 10 -18 10
-38 3 -72 30 -79 66 -4 18 -16 49 -27 68 -10 19 -17 27 -14 18 25 -84 27 -101
14 -109 -8 -6 -9 -9 -1 -9 6 0 19 -21 28 -47 26 -75 45 -116 51 -110 3 3 -4
32 -15 64 -12 33 -21 63 -21 67 0 9 73 -34 78 -46 2 -5 8 -6 13 -2 5 3 9 0 9
-5 0 -6 3 -10 8 -9 11 4 102 -36 102 -45 0 -5 5 -5 10 -2 6 3 10 2 10 -2 0 -5
9 -9 20 -10 28 -2 25 15 -4 23 -18 4 -29 21 -50 76 -14 39 -24 73 -23 75 2 2
25 -9 51 -23 26 -14 49 -24 52 -21 5 5 -19 23 -96 69 -20 12 -28 30 -38 75 -8
41 -25 78 -53 116 -44 62 -39 68 30 36 34 -15 47 -17 55 -8 8 9 6 10 -7 6 -11
-4 -25 1 -37 13 -11 11 -20 18 -20 15 0 -8 -53 28 -67 45 -9 10 -12 11 -13 3
0 -7 -12 -13 -26 -13 -14 0 -23 -4 -19 -10 3 -5 14 -10 25 -10 11 0 22 -11 28
-30 6 -16 22 -42 37 -57 14 -16 28 -39 31 -53 3 -14 8 -32 11 -40 3 -8 6 -25
7 -37 2 -21 1 -21 -34 -3 -19 10 -57 27 -85 39 -27 12 -57 25 -65 30 -16 8
-44 93 -52 159 -6 38 -4 42 15 43 12 0 -5 9 -38 19 -33 10 -80 25 -104 34 -49
18 -63 20 -41 6z"/>
<path d="M3005 3360 c-3 -5 1 -10 9 -10 8 0 28 -13 45 -29 17 -16 45 -31 67
-34 36 -6 64 -21 120 -62 18 -13 21 -14 21 0 0 8 -6 15 -14 15 -7 0 -13 6 -13
14 0 16 -97 56 -136 56 -17 0 -28 7 -31 19 -2 10 -16 24 -29 30 -30 13 -31 13
-39 1z"/>
<path d="M2010 3333 c-30 -14 -57 -30 -58 -34 -2 -5 -11 -17 -20 -26 -19 -18
-36 -153 -22 -167 5 -5 7 -1 4 11 -3 11 1 25 10 32 18 15 22 36 4 25 -8 -5 -9
-2 -5 10 4 10 7 20 7 22 0 3 5 2 11 -2 7 -4 7 1 -1 16 -6 12 -9 24 -6 27 3 3
8 -1 12 -10 5 -14 8 -14 20 -2 16 16 19 29 4 20 -14 -8 -12 7 3 26 15 20 57
42 64 35 4 -3 13 3 21 15 8 11 12 22 11 24 -2 1 -29 -9 -59 -22z"/>
<path d="M2246 3335 c4 -8 8 -15 10 -15 2 0 4 7 4 15 0 8 -4 15 -10 15 -5 0
-7 -7 -4 -15z"/>
<path d="M2060 3300 c-8 -6 -13 -10 -10 -11 31 -6 64 -10 60 -7 -3 2 -12 9
-20 15 -10 8 -21 9 -30 3z"/>
<path d="M2856 3290 c-19 -6 -19 -7 2 -12 12 -4 22 -14 23 -25 1 -21 37 -104
38 -87 1 6 -5 30 -13 52 -8 23 -11 43 -5 49 13 13 -23 31 -45 23z"/>
<path d="M2920 3262 c0 -6 21 -20 46 -32 54 -23 54 -23 54 -10 0 6 -7 10 -15
10 -8 0 -15 4 -15 9 0 5 -8 11 -17 14 -10 2 -26 8 -35 12 -11 4 -18 3 -18 -3z"/>
<path d="M3046 3235 c13 -32 13 -34 -3 -29 -10 3 -6 -2 8 -10 14 -8 32 -29 39
-46 7 -16 17 -30 22 -30 5 0 2 10 -6 22 -21 29 -20 42 2 34 9 -4 2 5 -16 20
-18 14 -30 30 -27 35 4 5 1 9 -4 9 -6 0 -11 7 -11 15 0 8 -4 15 -9 15 -6 0 -3
-16 5 -35z"/>
<path d="M1998 3241 c-4 -13 -3 -31 2 -40 14 -25 56 -123 65 -149 6 -22 5 -23
-17 -18 -22 7 -22 6 -3 -5 27 -16 56 -47 53 -56 -2 -4 9 -37 24 -73 14 -36 29
-73 32 -83 3 -10 11 -15 17 -11 8 5 9 2 2 -11 -8 -13 -6 -26 6 -46 20 -35 46
-40 35 -6 -4 12 -7 28 -7 35 0 6 -4 12 -9 12 -4 0 -8 6 -8 14 0 8 -4 16 -8 18
-11 4 -81 146 -74 152 6 6 65 -23 73 -36 3 -5 9 -10 12 -9 15 0 127 -53 127
-61 0 -4 8 -8 19 -8 13 0 20 -10 25 -31 6 -32 32 -37 30 -5 -1 9 3 16 8 16 9
0 114 -61 183 -106 14 -9 25 -12 25 -8 0 10 -132 92 -192 120 -30 14 -41 27
-53 63 -25 74 -51 117 -58 98 -3 -9 0 -23 8 -31 8 -7 11 -16 8 -20 -4 -3 -1
-6 6 -6 8 0 11 -6 7 -16 -3 -8 -2 -12 3 -9 9 5 27 -33 19 -40 -5 -5 -120 42
-127 52 -3 4 -33 22 -66 39 -56 29 -63 37 -99 108 -21 43 -39 89 -40 102 0 13
-4 24 -8 24 -4 0 -8 12 -10 28 -3 27 -3 27 -10 3z"/>
<path d="M2732 3228 c2 -13 6 -25 10 -28 14 -11 77 -154 71 -163 -3 -5 -9 -4
-13 3 -5 9 -9 9 -14 1 -6 -10 0 -13 20 -10 3 0 22 -17 41 -38 20 -21 32 -32
29 -25 -4 6 -3 12 3 12 16 0 1 28 -18 33 -14 3 -74 130 -77 162 -1 16 -38 75
-47 75 -5 0 -7 -10 -5 -22z"/>
<path d="M2800 3220 c6 -11 12 -20 14 -20 2 0 2 9 -1 20 -3 11 -9 20 -15 20
-5 0 -4 -9 2 -20z"/>
<path d="M3210 3171 c0 -5 7 -11 15 -15 8 -3 12 -12 9 -21 -4 -8 -1 -15 7 -15
7 0 10 -3 6 -6 -3 -4 -22 3 -41 14 -29 17 -35 18 -40 6 -3 -9 -1 -12 4 -9 11
7 75 -37 101 -68 12 -15 20 -17 34 -10 17 10 17 11 -3 22 -11 6 -33 34 -48 61
-25 46 -44 64 -44 41z"/>
<path d="M1955 3159 c-4 -6 -5 -12 -2 -15 2 -3 7 2 10 11 7 17 1 20 -8 4z"/>
<path d="M2094 3158 c-3 -4 0 -8 6 -8 6 0 9 -4 6 -8 -2 -4 3 -8 12 -9 9 -1 39
-11 66 -22 27 -12 51 -19 53 -17 11 10 -9 23 -61 41 -30 10 -53 22 -51 25 2 4
-3 7 -11 7 -8 0 -17 -4 -20 -9z"/>
<path d="M3126 3154 c-5 -14 -4 -15 9 -4 17 14 19 20 6 20 -5 0 -12 -7 -15
-16z"/>
<path d="M2840 3151 c0 -6 5 -11 11 -11 5 0 7 -5 3 -12 -4 -7 -3 -8 5 -4 11 7
81 -29 81 -43 0 -4 7 -16 15 -27 15 -18 15 -18 8 0 -8 22 -16 27 117 -59 52
-34 100 -64 106 -68 7 -4 9 2 6 19 -3 16 -7 21 -12 14 -5 -7 -9 -1 -13 17 -3
15 -1 31 5 34 8 5 -21 70 -42 93 -11 12 -5 -28 14 -86 8 -27 13 -48 11 -48
-15 0 -84 44 -89 56 -3 9 -11 12 -18 8 -7 -4 -10 -4 -6 1 4 4 2 15 -5 23 -9
13 -9 14 1 8 6 -4 12 -3 12 2 0 5 -9 12 -19 15 -14 3 -18 1 -14 -10 5 -11 -4
-10 -36 6 -22 12 -41 26 -41 31 0 6 -7 10 -16 10 -9 0 -32 9 -50 21 -19 11
-34 16 -34 10z"/>
<path d="M1986 3135 c-3 -8 -1 -15 4 -15 6 0 10 7 10 15 0 8 -2 15 -4 15 -2 0
-6 -7 -10 -15z"/>
<path d="M2304 3122 c2 -9 8 -18 14 -20 17 -5 15 25 -2 31 -9 4 -13 0 -12 -11z"/>
<path d="M2256 3104 c-5 -14 -1 -23 13 -33 12 -7 21 -20 21 -27 0 -17 17 -19
22 -2 3 8 14 5 34 -9 36 -26 120 -62 89 -38 -11 9 -27 21 -35 28 -8 6 -38 23
-67 36 -28 13 -55 33 -60 44 -9 20 -10 20 -17 1z"/>
<path d="M1949 3070 c-11 -8 -11 -10 1 -14 26 -8 75 -18 70 -14 -31 24 -59 35
-71 28z"/>
<path d="M2191 3036 c-9 -10 -8 -15 4 -20 10 -4 15 1 15 14 0 24 -4 25 -19 6z"/>
<path d="M2980 3010 c6 -11 13 -20 16 -20 2 0 0 9 -6 20 -6 11 -13 20 -16 20
-2 0 0 -9 6 -20z"/>
<path d="M2554 3000 c1 -8 10 -16 20 -18 11 -3 16 0 11 7 -3 6 -10 9 -15 6 -5
-3 -10 0 -13 7 -2 8 -3 7 -3 -2z"/>
<path d="M2906 2981 c-3 -4 23 -18 56 -31 33 -13 62 -30 65 -37 3 -7 9 -10 14
-8 5 3 22 -1 40 -10 17 -9 33 -14 36 -11 3 3 -15 14 -41 25 -25 11 -49 28 -53
37 -3 10 -8 12 -12 5 -5 -7 -23 -2 -54 13 -26 14 -49 21 -51 17z"/>
<path d="M2883 2936 c4 -9 -1 -16 -11 -19 -13 -3 -11 -7 11 -17 16 -8 35 -25
42 -39 11 -20 14 -22 15 -8 0 10 4 16 8 13 26 -16 112 -44 112 -37 0 5 -32 22
-71 37 -51 21 -75 37 -85 57 -15 28 -30 38 -21 13z"/>
<path d="M2010 2934 c0 -6 7 -19 16 -30 14 -18 14 -18 3 6 -14 31 -19 36 -19
24z"/>
<path d="M1950 2910 c0 -5 5 -10 10 -10 6 0 10 -7 10 -15 0 -8 4 -15 9 -15 5
0 13 -9 16 -21 4 -11 9 -18 11 -16 7 7 -37 87 -47 87 -5 0 -9 -4 -9 -10z"/>
<path d="M2958 2913 c7 -3 16 -2 19 1 4 3 -2 6 -13 5 -11 0 -14 -3 -6 -6z"/>
<path d="M3220 2912 c0 -12 19 -26 26 -19 2 2 -2 10 -11 17 -9 8 -15 8 -15 2z"/>
<path d="M2415 2890 c-3 -5 1 -10 10 -10 9 0 13 -4 10 -10 -3 -5 -1 -10 4 -10
6 0 11 9 11 20 0 21 -24 28 -35 10z"/>
<path d="M2051 2857 c-1 -5 4 -18 10 -29 7 -12 7 -24 2 -29 -12 -12 -45 0 -37
12 3 5 1 9 -5 9 -18 0 -22 -19 -10 -42 16 -31 71 -88 85 -88 6 0 17 -7 24 -15
7 -8 17 -15 22 -15 6 0 1 8 -10 18 -12 9 -24 34 -28 55 -6 37 -6 37 20 27 14
-5 26 -6 26 -2 0 4 -15 13 -32 20 -23 8 -38 23 -50 49 -9 21 -17 34 -17 30z
m38 -108 c13 -38 13 -39 3 -39 -8 0 -16 14 -40 63 -2 4 3 7 11 7 8 0 20 -14
26 -31z"/>
<path d="M2450 2776 c0 -2 7 -7 16 -10 8 -3 12 -2 9 4 -6 10 -25 14 -25 6z"/>
<path d="M3048 2749 c-22 -12 -24 -39 -3 -39 8 0 15 5 15 11 0 5 -6 7 -12 4
-7 -4 -2 3 11 14 24 22 18 28 -11 10z"/>
<path d="M2926 2734 c-10 -25 1 -29 14 -5 6 12 7 21 1 21 -5 0 -12 -7 -15 -16z"/>
<path d="M2960 2735 c0 -8 4 -15 9 -15 5 0 11 7 15 15 3 9 0 15 -9 15 -8 0
-15 -7 -15 -15z"/>
<path d="M2999 2733 c-13 -16 -12 -17 4 -4 16 13 21 21 13 21 -2 0 -10 -8 -17
-17z"/>
<path d="M2840 2725 c-10 -12 -10 -18 0 -30 7 -8 16 -13 20 -10 5 3 10 0 12
-7 3 -8 7 -6 11 5 3 9 3 16 -1 16 -4 -1 -15 -1 -26 0 -15 1 -16 4 -6 16 7 9
11 18 8 20 -3 3 -11 -1 -18 -10z"/>
<path d="M2250 2721 c0 -6 1 -11 3 -11 1 0 46 -15 100 -34 54 -19 96 -29 94
-23 -2 6 -12 15 -23 21 -10 6 -21 12 -23 13 -2 2 2 9 9 18 18 21 7 19 -21 -6
-13 -11 -25 -16 -27 -10 -2 6 -12 11 -21 11 -10 0 -21 3 -25 7 -3 4 -12 8 -19
9 -7 1 -20 5 -29 9 -11 4 -18 3 -18 -4z"/>
<path d="M2638 2703 c-8 -10 -6 -13 10 -13 11 0 24 6 30 13 8 10 6 13 -9 13
-11 0 -25 -6 -31 -13z"/>
<path d="M2458 2703 c12 -2 30 -2 40 0 9 3 -1 5 -23 4 -22 0 -30 -2 -17 -4z"/>
<path d="M2535 2670 c-4 -6 -13 -9 -20 -6 -8 3 -19 -2 -26 -10 -11 -13 -9 -14
17 -8 32 7 51 21 42 29 -3 4 -9 1 -13 -5z"/>
<path d="M700 2610 c0 -33 4 -60 10 -60 6 0 10 27 10 60 0 33 -4 60 -10 60 -6
0 -10 -27 -10 -60z"/>
<path d="M872 2608 c2 -28 8 -53 13 -55 6 -2 9 18 7 52 -2 30 -8 55 -13 55 -6
0 -9 -23 -7 -52z"/>
<path d="M795 2629 c-4 -6 2 -21 14 -33 12 -12 21 -29 21 -37 0 -12 2 -12 10
1 7 11 2 22 -16 41 -13 14 -21 28 -17 32 3 4 4 7 0 7 -3 0 -9 -5 -12 -11z"/>
<path d="M2315 2630 c-3 -5 -1 -10 4 -10 6 0 11 5 11 10 0 6 -2 10 -4 10 -3 0
-8 -4 -11 -10z"/>
<path d="M4026 2632 c6 -4 14 -14 17 -22 4 -10 6 -8 6 8 1 15 -5 22 -16 22
-11 0 -14 -3 -7 -8z"/>
<path d="M4092 2628 c-17 -17 -15 -53 4 -68 13 -12 14 -10 4 12 -9 19 -9 31
-1 47 13 24 11 27 -7 9z"/>
<path d="M4138 2599 c3 -28 7 -37 13 -28 12 19 11 32 -4 53 -11 15 -12 11 -9
-25z"/>
<path d="M4199 2631 c9 -6 12 -18 8 -32 -5 -20 -5 -21 10 -6 19 19 11 47 -14
47 -14 0 -15 -2 -4 -9z"/>
<path d="M4260 2630 c0 -5 9 -10 20 -10 11 0 20 5 20 10 0 6 -9 10 -20 10 -11
0 -20 -4 -20 -10z"/>
<path d="M735 2621 c-3 -5 -1 -12 5 -16 5 -3 10 1 10 9 0 18 -6 21 -15 7z"/>
<path d="M4278 2587 c8 -10 11 -25 7 -39 -6 -18 -4 -20 5 -12 15 15 9 56 -10
62 -13 4 -13 3 -2 -11z"/>
<path d="M791 2564 c0 -11 3 -14 6 -6 3 7 2 16 -1 19 -3 4 -6 -2 -5 -13z"/>
<path d="M2950 2515 c-36 -56 -47 -65 -74 -66 -24 -1 -26 -3 -8 -6 48 -9 85
15 115 72 30 60 31 65 18 65 -5 0 -28 -29 -51 -65z"/>
<path d="M920 2560 c0 -5 5 -10 10 -10 6 0 10 5 10 10 0 6 -4 10 -10 10 -5 0
-10 -4 -10 -10z"/>
<path d="M4003 2558 c-2 -5 10 -8 26 -8 17 0 31 3 31 8 0 4 -12 7 -26 7 -14 0
-28 -3 -31 -7z"/>
<path d="M4205 2560 l-30 -8 33 -1 c17 0 32 4 32 9 0 6 -1 9 -2 9 -2 -1 -16
-5 -33 -9z"/>
<path d="M2396 1984 c-11 -29 10 -43 84 -59 l35 -7 -40 41 c-41 43 -69 52 -79
25z"/>
<path d="M1630 1931 c0 -5 -18 -27 -40 -50 -42 -43 -39 -51 9 -26 25 13 33 12
80 -5 28 -11 51 -18 51 -15 0 3 -16 19 -35 36 -19 17 -37 39 -40 50 -6 19 -25
27 -25 10z"/>
<path d="M3226 1884 c-43 -49 -45 -53 -19 -43 15 5 33 15 40 21 9 7 26 5 58
-7 25 -10 47 -16 49 -14 2 2 -15 25 -38 50 l-42 47 -48 -54z"/>
<path d="M1255 1864 c-46 -24 -63 -43 -81 -90 -21 -56 -15 -144 13 -182 37
-50 81 -72 142 -72 31 1 67 7 81 15 32 18 40 18 40 0 0 -8 5 -15 11 -15 7 0 9
9 5 23 -3 12 -6 42 -7 67 l-1 45 -10 -42 c-5 -26 -19 -50 -35 -63 -34 -26 -94
-27 -117 -1 -59 65 -60 237 -3 299 46 50 135 17 156 -58 l9 -35 1 47 c1 25 4
53 7 62 3 9 1 16 -5 16 -6 0 -11 -7 -11 -15 0 -18 -8 -18 -40 0 -33 19 -118
19 -155 -1z"/>
<path d="M2405 1724 c-33 -87 -68 -168 -78 -181 l-18 -23 53 0 c50 0 51 1 28
13 -28 15 -31 47 -9 100 11 26 15 28 67 25 53 -3 56 -4 67 -38 28 -81 28 -80
3 -89 -17 -7 -1 -10 61 -10 70 -1 82 1 68 12 -9 6 -45 86 -80 177 -84 219 -83
219 -162 14z m69 8 l25 -62 -51 0 c-36 0 -49 4 -46 13 3 6 13 36 23 64 10 29
20 51 22 49 2 -1 14 -31 27 -64z"/>
<path d="M2881 1859 c-48 -29 -68 -57 -81 -111 -21 -85 8 -169 72 -208 42 -25
143 -28 176 -4 22 15 24 15 37 -2 13 -17 14 -12 15 49 0 43 -4 66 -10 62 -5
-3 -10 -17 -10 -30 0 -13 -12 -38 -26 -55 -24 -27 -32 -31 -72 -28 -56 4 -77
29 -94 111 -9 44 -9 70 0 115 17 79 39 106 91 110 35 3 46 -2 71 -27 18 -17
30 -40 30 -55 0 -14 5 -26 10 -26 6 0 10 27 10 63 -1 55 -2 60 -15 43 -13 -17
-15 -17 -37 -2 -33 24 -124 21 -167 -5z"/>
<path d="M1848 1853 c-23 -4 -28 -9 -28 -33 0 -22 -5 -30 -22 -33 -22 -4 -22
-4 -2 -6 20 -1 22 -7 26 -115 3 -74 9 -120 17 -130 19 -22 84 -21 104 2 23 26
21 39 -2 18 -34 -31 -41 -11 -41 109 l0 114 33 4 32 4 -32 1 c-31 2 -33 5 -33
37 0 22 -5 34 -12 34 -7 -1 -25 -4 -40 -6z"/>
<path d="M3483 1853 c-18 -3 -23 -11 -23 -33 0 -24 -5 -29 -27 -33 l-28 -4 28
-2 27 -1 0 -114 c0 -91 3 -118 16 -130 21 -22 77 -20 97 2 22 24 22 39 1 17
-32 -31 -39 -12 -42 108 l-3 116 33 4 33 4 -32 1 c-31 2 -33 5 -33 37 0 36 -2
37 -47 28z"/>
<path d="M1585 1781 c-77 -32 -96 -181 -30 -238 29 -26 105 -32 149 -12 51 24
74 135 41 199 -26 50 -102 74 -160 51z m81 -26 c12 -18 17 -48 17 -103 0 -85
-13 -122 -42 -122 -31 0 -44 27 -49 103 -7 117 33 184 74 122z"/>
<path d="M2043 1774 c-45 -22 -66 -73 -61 -142 4 -47 10 -60 37 -84 42 -38
110 -40 146 -3 29 28 35 57 7 32 -10 -10 -33 -17 -50 -17 -39 0 -62 31 -62 82
l0 38 70 0 c41 0 70 4 70 10 0 24 -30 79 -48 89 -29 15 -71 13 -109 -5z m75
-6 c7 -7 12 -27 12 -45 0 -31 -2 -33 -35 -33 -31 0 -35 3 -35 26 0 52 31 79
58 52z"/>
<path d="M3204 1771 c-40 -24 -58 -76 -51 -144 3 -41 11 -56 36 -79 26 -23 40
-28 85 -28 66 0 101 24 117 82 19 73 -5 148 -56 173 -44 20 -93 19 -131 -4z
m102 -26 c17 -42 18 -151 1 -185 -18 -36 -54 -39 -67 -5 -16 43 -13 177 6 203
22 32 43 27 60 -13z"/>
<path d="M3684 1780 c-78 -31 -98 -168 -34 -232 23 -23 37 -28 75 -28 39 0 52
5 77 30 32 32 32 55 0 27 -10 -10 -33 -17 -50 -17 -39 0 -62 31 -62 82 l0 38
71 0 72 0 -7 33 c-12 62 -78 93 -142 67z m75 -31 c18 -52 15 -59 -29 -59 -35
0 -40 3 -40 23 0 28 26 67 45 67 7 0 18 -14 24 -31z"/>
<path d="M1513 1325 c-44 -19 -118 -89 -137 -129 -20 -43 -21 -90 -1 -106 36
-30 191 9 221 56 19 29 39 33 24 5 -5 -11 -10 -24 -10 -30 0 -13 57 -15 64 -2
4 5 19 3 35 -5 22 -11 35 -12 56 -4 19 7 31 7 41 -1 8 -6 22 -8 36 -3 13 4 35
7 50 5 15 -1 37 3 49 9 18 10 24 9 31 -4 10 -18 40 -21 68 -6 12 7 28 7 44 0
17 -6 35 -6 53 1 19 7 28 6 34 -2 4 -7 17 -9 35 -5 16 4 43 7 60 6 23 0 40 8
60 30 31 32 50 39 40 15 -3 -8 -9 -22 -12 -30 -5 -11 1 -15 23 -15 27 0 82 29
56 30 -6 0 -15 -4 -18 -10 -8 -13 -45 -13 -45 -1 0 6 5 13 10 16 9 6 5 41 -6
54 -1 2 -20 -15 -42 -38 -21 -23 -47 -41 -57 -41 -16 0 -15 4 9 29 16 16 26
35 24 42 -3 8 -15 -2 -31 -23 -27 -34 -81 -67 -93 -55 -3 3 6 22 21 42 15 19
25 38 22 41 -3 3 -13 -6 -23 -21 -18 -28 -62 -55 -89 -55 -14 0 -13 4 4 26 12
15 21 35 21 44 0 30 -39 12 -66 -31 -23 -37 -62 -58 -83 -44 -17 10 -13 33 11
65 18 25 29 30 67 32 l46 1 -45 6 c-28 4 -40 9 -32 14 6 5 12 13 12 19 0 7
-12 0 -27 -14 -16 -15 -39 -28 -53 -31 -23 -4 -23 -4 -2 -6 25 -1 26 -4 12
-32 -12 -21 -60 -49 -86 -49 -16 0 -16 2 1 20 10 11 15 23 12 26 -4 4 -20 -7
-36 -25 -33 -36 -69 -44 -51 -12 16 30 62 63 82 58 20 -6 34 8 18 18 -13 8
-77 -22 -93 -44 -14 -18 -60 -41 -84 -41 -15 0 -15 2 0 18 8 9 19 29 22 45 6
24 5 26 -11 21 -11 -4 -35 -24 -55 -45 -22 -24 -46 -39 -60 -39 -18 0 -20 3
-11 12 14 14 16 54 3 63 -5 3 -22 -10 -38 -29 -49 -60 -176 -99 -211 -64 -44
44 33 165 135 213 57 27 73 -10 27 -64 -15 -19 -20 -29 -11 -25 40 15 63 96
31 108 -9 3 -16 6 -17 6 -1 -1 -16 -7 -34 -15z m226 -167 c-13 -18 -25 -26
-27 -19 -4 13 25 51 40 51 5 0 -1 -14 -13 -32z m382 14 c-12 -23 -41 -48 -41
-35 0 5 7 19 16 31 19 27 39 30 25 4z"/>
<path d="M2721 1257 c-31 -39 -60 -67 -70 -66 -43 4 -65 -3 -92 -30 -16 -16
-29 -37 -29 -45 0 -20 39 -21 66 -1 25 19 34 19 34 -1 0 -13 7 -15 28 -11 31
6 106 47 99 54 -3 2 -20 -5 -38 -16 -86 -49 -105 -31 -38 34 51 50 102 122 97
137 -3 7 -28 -18 -57 -55z m9 -17 c-12 -16 -24 -30 -26 -30 -3 0 4 14 16 30
12 17 24 30 26 30 3 0 -4 -13 -16 -30z m-82 -72 c-6 -17 -95 -64 -105 -55 -13
13 54 67 83 67 15 0 24 -5 22 -12z"/>
<path d="M2787 1262 c-36 -67 -34 -77 3 -18 17 27 29 53 28 58 -2 6 -16 -12
-31 -40z"/>
<path d="M1765 1255 c-16 -14 -25 -25 -20 -25 6 0 24 11 40 25 17 13 26 24 20
24 -5 0 -23 -11 -40 -24z"/>
<path d="M2959 1262 c-14 -9 -46 -31 -71 -47 -44 -30 -108 -95 -108 -110 0 -5
9 0 20 10 16 14 23 16 32 7 18 -18 33 -15 18 3 -10 13 -10 19 5 35 10 11 23
20 29 20 17 0 49 -58 42 -76 -3 -7 -1 -14 4 -14 6 0 10 7 10 15 0 8 12 44 26
79 14 36 24 72 22 80 -3 14 -6 14 -29 -2z m0 -64 c-11 -29 -21 -54 -22 -54 -1
-1 -12 11 -24 26 l-23 28 38 25 c20 14 40 26 44 26 4 1 -2 -23 -13 -51z"/>
<path d="M3565 1255 c-16 -14 -25 -25 -20 -25 6 0 24 11 40 25 17 13 26 24 20
24 -5 0 -23 -11 -40 -24z"/>
<path d="M3372 1239 c-15 -18 -34 -29 -50 -30 -25 -1 -26 -1 -4 -7 21 -7 22
-8 7 -30 -18 -24 -73 -57 -83 -48 -3 4 7 20 23 36 38 40 24 38 -32 -5 -25 -19
-52 -35 -59 -35 -17 0 -17 0 1 44 17 41 9 45 -28 16 l-26 -20 -3 21 c-3 20 -4
20 -41 -5 l-38 -26 6 37 c5 34 4 36 -6 13 -31 -70 -39 -93 -35 -97 3 -3 24 13
47 36 57 55 75 55 44 1 -25 -44 -16 -45 25 -5 40 40 49 40 29 3 -15 -29 1 -41
36 -28 21 8 30 8 35 0 5 -8 18 -7 46 5 35 15 40 15 50 0 9 -13 24 -15 67 -11
30 2 64 9 75 15 15 8 28 7 50 -5 28 -13 35 -13 68 1 20 8 35 18 31 21 -3 3
-14 1 -25 -5 -12 -6 -28 -11 -38 -11 -16 0 -16 2 -1 18 8 9 19 29 22 45 6 24
5 26 -11 21 -11 -4 -32 -19 -49 -34 -62 -57 -113 -65 -60 -10 42 44 19 37 -31
-10 -49 -45 -84 -53 -84 -19 0 11 9 34 21 50 17 24 28 29 67 31 l47 1 -43 4
c-39 4 -41 6 -31 24 16 31 7 30 -19 -2z m167 -81 c-13 -18 -25 -26 -27 -19 -4
13 25 51 40 51 5 0 -1 -14 -13 -32z"/>
<path d="M695 1170 c4 -6 118 -10 311 -10 196 0 304 4 304 10 0 6 -110 10
-311 10 -204 0 -308 -3 -304 -10z"/>
<path d="M3695 1170 c4 -6 118 -10 311 -10 196 0 304 4 304 10 0 6 -110 10
-311 10 -204 0 -308 -3 -304 -10z"/>
</g>
</svg>
